<?xml version="1.0" encoding="utf-8" ?><svg xmlns="http://www.w3.org/2000/svg" xmlns:xlink="http://www.w3.org/1999/xlink" width="1024" height="1024" viewBox="0 0 1024 1024"><path fill="#20598B" d="M182.548 838.94C180.544 835.345 167.466 820.721 163.808 815.846C145.09 790.895 129.914 767.646 115.549 739.778C56.1919 623.611 44.9256 488.754 84.1849 364.349C121.153 249.228 204.747 147.666 312.619 92.5484C381.845 57.3505 459.111 40.9758 536.664 45.0672C579.078 47.2051 623.473 57.2043 663.96 70.1332C675.574 73.842 687.264 79.7215 699.026 83.5352C672.944 111.123 680.069 130.218 679.228 165.474C678.917 178.511 678.835 192.372 679.183 205.356C679.25 208.423 679.452 211.486 679.787 214.536C687.349 241.73 704.432 258.268 733.305 260.569C735.277 263.425 740.151 267.9 742.768 270.528C747.337 275.132 751.729 279.908 755.935 284.845C760.082 289.799 773.695 308.659 776.545 311.098L776.624 311.541C776.892 311.435 824.713 264.068 828.06 260.745C845.532 260.696 863.113 261.423 880.602 261.129C884.423 261.065 888.63 260.884 892.417 261.174L892.78 261.974C894.849 266.443 899.795 273.61 902.411 278.562C910.207 293.321 919.634 310.546 925.965 326.026C972.954 438.477 976.174 564.44 934.99 679.145C901.98 772.264 845.409 846.925 765.543 905.421C754.983 913.155 741.612 920.589 730.111 927.256C671.329 961.327 602.967 981.496 535.13 985.076C526.961 985.507 518.237 985.116 510.11 985.071C459.291 985.099 408.868 976.132 361.174 958.585C312.478 941.204 264.364 911.22 224.57 878.297C219.863 874.403 210.098 866.198 206.548 862.092C205.784 861.568 205.145 861.359 204.219 861.271C197.965 860.673 191.418 860.902 185.115 860.562C173.367 859.928 107.519 855.97 101.229 850.834C100.602 850.323 100.814 850.403 100.802 849.494C108.103 843.462 145.758 842.226 156.748 841.134C163.965 840.416 175.49 838.802 182.548 838.94Z"/><path fill="#D1E0EA" d="M828.06 260.745C845.532 260.696 863.113 261.423 880.602 261.129C884.423 261.065 888.63 260.884 892.417 261.174L892.78 261.974C894.849 266.443 899.795 273.61 902.411 278.562C910.207 293.321 919.634 310.546 925.965 326.026C972.954 438.477 976.174 564.44 934.99 679.145C901.98 772.264 845.409 846.925 765.543 905.421C754.983 913.155 741.612 920.589 730.111 927.256C671.329 961.327 602.967 981.496 535.13 985.076C526.961 985.507 518.237 985.116 510.11 985.071C459.291 985.099 408.868 976.132 361.174 958.585C312.478 941.204 264.364 911.22 224.57 878.297C219.863 874.403 210.098 866.198 206.548 862.092C205.784 861.568 205.145 861.359 204.219 861.271C197.965 860.673 191.418 860.902 185.115 860.562C173.367 859.928 107.519 855.97 101.229 850.834C100.602 850.323 100.814 850.403 100.802 849.494C108.103 843.462 145.758 842.226 156.748 841.134C163.965 840.416 175.49 838.802 182.548 838.94C185.558 838.183 209.464 837.278 214.314 837.005C214.31 830.726 213.897 774.155 214.807 772.629L214.849 719.886C214.852 715.066 214.548 699.744 215.342 695.757C215.884 693.023 217.224 690.511 219.192 688.538C224.717 682.957 235.698 684.463 243.461 684.591L255.497 684.714C258.493 680.974 261.696 679.82 266.434 679.439C273.592 678.862 278.154 679.528 283.331 684.535C289.788 684.548 309.735 683.976 314.828 685.378C316.933 685.954 318.848 687.078 320.377 688.635C323.691 691.978 324.968 696.593 325.038 701.189C325.242 714.662 324.714 728.214 324.916 741.677C330.318 743.665 354.135 754.193 357.948 753.062C356.771 785.814 359.491 807.988 386.998 828.676C397.792 836.36 408.998 842.648 421.888 846.128C451.903 854.232 483.742 852.853 514.563 852.815C551.942 852.769 600.97 853.836 633.078 831.887C647.18 821.53 655.306 811.795 661.709 795.458C663.525 796.412 666.673 794.002 668.334 792.939C730.986 752.796 780.737 698.897 809.439 630.151C850.936 530.759 841.134 417.278 785.9 325.281C783.175 320.743 779.802 316.699 777.13 312.374L776.624 311.541C776.892 311.435 824.713 264.068 828.06 260.745Z"/><path fill="#082242" d="M255.497 684.714C258.493 680.974 261.696 679.82 266.434 679.439C273.592 678.862 278.154 679.528 283.331 684.535C289.788 684.548 309.735 683.976 314.828 685.378C316.933 685.954 318.848 687.078 320.377 688.635C323.691 691.978 324.968 696.593 325.038 701.189C325.242 714.662 324.714 728.214 324.916 741.677C330.318 743.665 354.135 754.193 357.948 753.062C356.771 785.814 359.491 807.988 386.998 828.676C383.722 829.854 376.504 829.678 372.73 829.751L341.933 830.301C337.662 830.376 328.69 830.316 324.916 830.981C325.355 843.225 320.312 849.13 307.785 849.068C280.567 848.935 253.067 849.903 225.909 848.893C221.392 848.725 215.064 842.403 215.188 837.823C214.467 830.454 214.725 822.906 214.744 815.394L214.807 772.629L214.849 719.886C214.852 715.066 214.548 699.744 215.342 695.757C215.884 693.023 217.224 690.511 219.192 688.538C224.717 682.957 235.698 684.463 243.461 684.591L255.497 684.714Z"/><path fill="#D1E0EA" d="M324.916 741.677C330.318 743.665 354.135 754.193 357.948 753.062C356.771 785.814 359.491 807.988 386.998 828.676C383.722 829.854 376.504 829.678 372.73 829.751L341.933 830.301C337.662 830.376 328.69 830.316 324.916 830.981C323.912 802.928 324.574 769.762 324.916 741.677Z"/><path fill="#A2CCD0" d="M291.739 695.011C298.127 694.917 306.869 694.052 312.669 696.254C317.229 697.986 316.463 710.537 316.489 714.543C316.526 720.297 316.467 726.095 316.473 731.842L316.514 772.427L316.544 810.869C316.549 817.533 316.613 824.3 316.453 830.964C316.407 832.855 315.376 834.481 314.448 836.125C311.831 838.7 308.718 839.662 305.039 839.641C281.469 839.503 257.849 839.709 234.286 839.643C223.113 839.612 223.722 832.628 223.748 823.808C223.869 784.035 224.079 744.114 223.906 704.328C223.881 698.846 225.798 696.58 231.052 695.127C236.425 694.917 241.811 694.991 247.189 695.015C252.746 705.576 256.203 702.823 267.41 703.126C273.498 703.29 279.793 702.977 285.898 702.903C290.04 700.454 290.365 699.486 291.739 695.011Z"/><path fill="#FBFBFC" d="M265.056 761.627C281.475 759.107 296.832 770.363 299.373 786.778C301.913 803.194 290.678 818.565 274.266 821.127C257.823 823.694 242.418 812.433 239.872 795.988C237.327 779.542 248.607 764.151 265.056 761.627Z"/><path fill="#A2CCD0" d="M266.239 766.596C280.047 764.724 292.744 774.437 294.548 788.254C296.352 802.07 286.576 814.719 272.751 816.455C259.022 818.179 246.48 808.486 244.689 794.766C242.897 781.045 252.528 768.456 266.239 766.596Z"/><path fill="#FBFBFC" d="M270.064 793.281C272.421 790.783 275.792 786.524 279.016 786.299L279.54 787.048C279.455 788.847 279.472 788.294 278.181 790.009C275.572 792.626 272.799 795.812 270.284 798.577C267.501 795.546 263.778 791.731 261.431 788.337C260.933 787.615 261.292 787.437 261.707 786.268C265.663 786.943 267.253 789.957 270.064 793.281Z"/><path fill="#FBFBFC" d="M243.247 730.256C262.804 730.151 282.367 729.999 301.923 730.183C304.343 730.206 306.804 730.247 307.826 732.662C306.515 735.728 301.518 735.113 298.825 735.044L255.961 735.116C251.709 735.121 236.008 736.327 234.158 732.938C235.73 729.565 240.155 730.178 243.247 730.256Z"/><path fill="#FBFBFC" d="M235.273 717.549C243.83 717.486 301.806 716.708 306.29 718.091C307.077 719.408 306.794 720.656 306.712 722.247C295.544 723.13 278.137 722.013 266.477 722.363C261.333 722.518 239.997 722.527 235.943 721.918C235.009 720.407 235.343 719.641 235.273 717.549Z"/><path fill="#FBFBFC" d="M234.601 744.041C248.443 743.266 264.872 744.096 278.943 743.799C284.033 743.691 301.969 743.528 306.073 744.133C306.858 745.602 306.576 746.169 306.539 748.016C291.527 748.558 275.541 748.106 260.405 748.364C255.933 748.44 239.159 748.661 235.426 747.877C234.541 746.426 234.75 745.879 234.601 744.041Z"/><path fill="#20598B" d="M262.765 683.657C267.861 683.437 274.767 682.576 278.911 685.563C280.422 688.871 277.565 690.277 275.056 691.906C270.264 692.146 260.84 693.606 258.24 689.08C258.174 685.692 259.689 684.441 262.765 683.657Z"/><path fill="#A2CCD0" d="M214.314 837.005C214.31 830.726 213.897 774.155 214.807 772.629L214.744 815.394C214.725 822.906 214.467 830.454 215.188 837.823C215.064 842.403 221.392 848.725 225.909 848.893C253.067 849.903 280.567 848.935 307.785 849.068C320.312 849.13 325.355 843.225 324.916 830.981C328.69 830.316 337.662 830.376 341.933 830.301L372.73 829.751C376.504 829.678 383.722 829.854 386.998 828.676C397.792 836.36 408.998 842.648 421.888 846.128C451.903 854.232 483.742 852.853 514.563 852.815C551.942 852.769 600.97 853.836 633.078 831.887C636.113 833.309 646.377 832.662 650.124 833.121C665.545 835.01 746.443 837.237 752.384 848.452C748.634 862.37 605.787 866.003 585.682 866.677C487.008 869.987 387.626 867.614 288.909 865.301C273.58 864.909 258.257 864.317 242.943 863.524C231.274 862.884 218.119 861.79 206.548 862.092C205.784 861.568 205.145 861.359 204.219 861.271C197.965 860.673 191.418 860.902 185.115 860.562C173.367 859.928 107.519 855.97 101.229 850.834C100.602 850.323 100.814 850.403 100.802 849.494C108.103 843.462 145.758 842.226 156.748 841.134C163.965 840.416 175.49 838.802 182.548 838.94C185.558 838.183 209.464 837.278 214.314 837.005Z"/><path fill="#FBFBFC" d="M785.895 725.325C787.248 725.446 788.723 725.509 789.699 726.552C792.912 729.99 791.275 742.775 791.023 747.512C796.076 747.425 810.506 745.681 812.676 750.93C812.649 752.691 812.755 752.753 811.927 754.371C809.32 756.475 795.015 755.625 790.898 755.578C790.793 761.581 791.725 768.652 790.516 774.406C790.122 776.282 788.666 777.06 787.113 777.953C783.973 776.937 783.106 775.54 782.932 772.279C782.647 766.938 782.944 761.183 783.014 755.832C778.487 755.913 753.599 758.913 761.729 748.375C765.241 747.084 778.671 747.62 783.441 747.527C783.346 741.228 781.235 729.681 785.895 725.325Z"/><path fill="#D1E0EA" d="M182.548 838.94C180.544 835.345 167.466 820.721 163.808 815.846C145.09 790.895 129.914 767.646 115.549 739.778C56.1919 623.611 44.9256 488.754 84.1849 364.349C121.153 249.228 204.747 147.666 312.619 92.5484C381.845 57.3505 459.111 40.9758 536.664 45.0672C579.078 47.2051 623.473 57.2043 663.96 70.1332C675.574 73.842 687.264 79.7215 699.026 83.5352C672.944 111.123 680.069 130.218 679.228 165.474C678.917 178.511 678.835 192.372 679.183 205.356C679.25 208.423 679.452 211.486 679.787 214.536C671.7 212.215 661.516 205.262 653.569 201.736C642.035 196.62 630.531 191.832 618.555 187.807C535.009 158.955 443.3 165.512 364.709 205.954C301.314 239.364 250.462 292.43 219.783 357.191C177.478 447.408 177.787 561.299 223.947 650.053C228.15 658.004 232.516 665.868 237.043 673.64C238.167 675.586 242.751 682.977 243.461 684.591C235.698 684.463 224.717 682.957 219.192 688.538C217.224 690.511 215.884 693.023 215.342 695.757C214.548 699.744 214.852 715.066 214.849 719.886L214.807 772.629C213.897 774.155 214.31 830.726 214.314 837.005C209.464 837.278 185.558 838.183 182.548 838.94Z"/><path fill="#FBFBFC" d="M124.628 440.401L125.633 440.396C132.81 440.427 130.258 456.198 130.086 461.535C134.534 461.481 154.832 458.994 151.331 466.991C147.505 470.094 135.377 468.967 130.117 468.867C130.156 473.636 130.893 486.337 129.244 489.751C120.04 492.516 123.17 482.431 122.827 476.743C122.682 474.341 122.878 471.432 122.885 468.986C117.256 468.957 104.25 471.04 101.827 465.636C101.877 463.962 101.727 463.798 102.751 462.459C105.679 460.66 118.42 461.364 122.939 461.361C122.838 456.078 121.82 444.2 124.628 440.401Z"/><path fill="#E3EBF0" d="M243.461 684.591C242.751 682.977 238.167 675.586 237.043 673.64C232.516 665.868 228.15 658.004 223.947 650.053C177.787 561.299 177.478 447.408 219.783 357.191C250.462 292.43 301.314 239.364 364.709 205.954C443.3 165.512 535.009 158.955 618.555 187.807C630.531 191.832 642.035 196.62 653.569 201.736C661.516 205.262 671.7 212.215 679.787 214.536C687.349 241.73 704.432 258.268 733.305 260.569C735.277 263.425 740.151 267.9 742.768 270.528C747.337 275.132 751.729 279.908 755.935 284.845C760.082 289.799 773.695 308.659 776.545 311.098L776.624 311.541L777.13 312.374C779.802 316.699 783.175 320.743 785.9 325.281C841.134 417.278 850.936 530.759 809.439 630.151C780.737 698.897 730.986 752.796 668.334 792.939C666.673 794.002 663.525 796.412 661.709 795.458C663.973 787.643 665.509 781.715 665.377 773.455C664.413 712.807 654.017 654.305 609.248 610.187C612.873 609.247 616.491 608.277 620.1 607.278C655.774 597.235 686.024 571.772 704.017 539.606C711.412 539.674 720.17 540.252 727.34 538.915C735.901 537.319 741.019 528.44 738.588 520.221C738.791 519.206 738.789 517.991 739.616 517.853C749.282 516.237 758.604 519.912 767.177 512.95C770.577 510.189 772.672 505.767 773.072 501.204C773.219 500.274 773.344 499.454 773.351 498.504C773.554 470.999 773.494 443.48 773.172 415.976C773.097 409.584 773.105 404.35 768.231 399.404C763.206 394.304 756.17 394.731 749.598 394.706C747.005 394.696 744.411 394.676 741.825 394.666L740.01 394.381C739.035 392.879 739.73 391.27 739.172 389.116C738.094 378.83 729.523 375.946 720.39 376.074C707.074 320.193 675.106 276.359 626.114 246.156C601.984 231.28 564.953 217.822 536.68 216.298C536.724 212.703 536.92 209.853 535.877 206.355C530.549 188.489 506.217 183.355 493.698 196.855C488.2 202.783 487.386 208.476 487.529 216.097C471.944 218.327 458.091 220.901 443.005 225.612C373.402 247.347 317.873 306.07 303.361 378.137C297.946 378.524 293.303 379.176 289.504 383.601C286.798 386.755 286.153 391.736 285.577 395.652C285.2 395.903 284.824 396.154 284.447 396.405C283.233 397.475 283.134 397.463 283.108 399.73C282.914 416.222 283.24 432.791 283.265 449.255L283.26 488.633C283.255 494.023 282.993 512.521 284.207 516.667C285.032 518.322 284.999 520.195 285.07 521.985C285.524 533.571 289.411 539.145 301.638 539.785C308.433 540.141 311.977 540.467 318.454 537.119C334.415 568.654 365.265 594.843 398.775 605.885C404.541 607.748 410.401 609.305 416.332 610.548C410.014 616.417 404.141 622.104 398.915 629.034C374.03 662.034 359.099 712.064 357.948 753.062C354.135 754.193 330.318 743.665 324.916 741.677C324.714 728.214 325.242 714.662 325.038 701.189C324.968 696.593 323.691 691.978 320.377 688.635C318.848 687.078 316.933 685.954 314.828 685.378C309.735 683.976 289.788 684.548 283.331 684.535C278.154 679.528 273.592 678.862 266.434 679.439C261.696 679.82 258.493 680.974 255.497 684.714L243.461 684.591Z"/><path fill="#2D6898" d="M284.207 516.667C275.052 516.885 263.341 518.556 256.833 510.812C254.646 508.18 253.252 504.98 252.815 501.587C252.321 498.011 252.513 490.968 252.515 487.196L252.54 462.027L252.488 429.558C252.483 424.469 252.244 416.208 252.666 411.373C253.058 406.613 255.439 402.239 259.225 399.327C265.732 394.24 276.553 395.303 284.447 396.405C283.233 397.475 283.134 397.463 283.108 399.73C282.914 416.222 283.24 432.791 283.265 449.255L283.26 488.633C283.255 494.023 282.993 512.521 284.207 516.667Z"/><defs><linearGradient id="gradient_0" gradientUnits="userSpaceOnUse" x1="253.43018" y1="440.52014" x2="273.97083" y2="437.34036"><stop offset="0" stop-color="#3582B7"/><stop offset="1" stop-color="#3F9ED5"/></linearGradient></defs><path fill="url(#gradient_0)" d="M266.336 401.032C267.787 401.109 268.527 401.252 269.943 401.497C269.659 402.495 265.354 404.398 264.375 405.813C259.331 413.101 260.888 427.48 260.936 436.107C261.067 449.533 261.107 462.961 261.056 476.388C259.615 477.71 260.295 477.566 258.755 477.863C256.767 474.109 258.701 426.941 257.936 418.989C257.219 411.528 259.472 405.157 266.336 401.032Z"/><path fill="#2D6898" d="M741.825 394.666C744.411 394.676 747.005 394.696 749.598 394.706C756.17 394.731 763.206 394.304 768.231 399.404C773.105 404.35 773.097 409.584 773.172 415.976C773.494 443.48 773.554 470.999 773.351 498.504C773.344 499.454 773.219 500.274 773.072 501.204C772.746 498.529 772.85 493.857 772.834 491.006C758 490.883 755.881 492.452 744.383 483.033C744.887 474.876 744.796 396.442 743.962 395.246L741.949 394.928L741.825 394.666Z"/><path fill="#0C4A80" d="M741.949 394.928L743.962 395.246C744.796 396.442 744.887 474.876 744.383 483.033C744.145 487.807 744.764 514.991 743.247 516.622C741.396 516.938 740.674 517.186 738.806 516.819C737.992 514.211 738.014 404.004 738.791 395.933C739.864 394.84 740.016 395.176 741.949 394.928Z"/><path fill="#FBFBFC" d="M319.924 385.712C320.489 382.504 323.174 377.221 324.799 374.121C335.146 354.826 349.834 338.197 367.704 325.546C383.944 314.284 402.343 306.511 421.738 302.717C439.678 299.207 454.168 300.02 472.212 300.011L523.465 299.993L561.785 299.973C574.656 299.943 587.053 299.35 599.945 301.744C645.036 310.116 684.487 343.31 703.265 384.701C703.789 385.855 703.488 423.005 703.48 426.749L703.429 468.793C703.42 475.805 703.673 486.138 703.134 492.902C704.104 502.675 702.249 517.593 703.377 526.572C691.999 549.475 674.564 570.938 652.975 584.762C634.194 596.788 608.955 605.69 586.412 606.039C558.55 606.47 530.574 606.398 502.706 606.347L464.856 606.374C443.631 606.409 427.549 607.029 406.579 601.152C385.739 595.312 365.758 583.168 350.066 568.289C342.628 561.109 335.994 553.142 330.28 544.526C320.369 529.332 319.401 524.119 319.501 507.012C319.634 498.585 319.625 490.157 319.474 481.731C318.558 478.65 318.906 473.053 319.017 469.753C309.206 469.534 298.565 469.715 288.648 469.648C288.014 446.867 288.709 423.14 288.948 400.31C289.026 392.897 292.174 384.432 300.179 382.715C304.682 381.749 311.386 381.321 314.847 384.92C316.204 386.239 317.527 388.206 319.202 389.079L319.924 385.712Z"/><path fill="#E3EBF0" d="M319.664 465.209C320.552 468.98 319.738 472.298 320.55 475.909C328.301 510.384 343.492 541.142 373.427 561.571C404.87 583.03 436.456 583.344 472.498 582.776C485.161 582.552 497.826 582.456 510.491 582.488L557.976 582.87C572.227 582.954 586.888 583.647 600.72 580.803C641.052 572.509 678.295 548.106 695.675 509.835C697.44 505.948 700.853 495.801 703.134 492.902C704.104 502.675 702.249 517.593 703.377 526.572C691.999 549.475 674.564 570.938 652.975 584.762C634.194 596.788 608.955 605.69 586.412 606.039C558.55 606.47 530.574 606.398 502.706 606.347L464.856 606.374C443.631 606.409 427.549 607.029 406.579 601.152C385.739 595.312 365.758 583.168 350.066 568.289C342.628 561.109 335.994 553.142 330.28 544.526C320.369 529.332 319.401 524.119 319.501 507.012C319.634 498.585 319.625 490.157 319.474 481.731C319.829 476.853 319.649 470.222 319.664 465.209Z"/><path fill="#2D6898" d="M288.648 469.648C288.014 446.867 288.709 423.14 288.948 400.31C289.026 392.897 292.174 384.432 300.179 382.715C304.682 381.749 311.386 381.321 314.847 384.92C316.204 386.239 317.527 388.206 319.202 389.079L319.924 385.712C319.781 401.891 319.75 418.071 319.831 434.25C319.807 444.344 319.451 455.264 319.664 465.209C319.649 470.222 319.829 476.853 319.474 481.731C318.558 478.65 318.906 473.053 319.017 469.753C309.206 469.534 298.565 469.715 288.648 469.648Z"/><path fill="#2D6898" d="M425.344 359.22C437.533 358.79 451.499 359.111 463.795 359.124L535.757 359.189L577.074 359.074C587.186 359.031 598.269 358.475 608.247 360.026C644.923 365.729 676.345 394.062 684.722 430.4C687.148 439.154 686.324 447.927 686.747 456.76C687.893 480.637 684.783 500.786 671.568 521.527C653.763 549.471 628.081 565.362 595.89 572.449C583.057 575.059 570.432 574.507 557.449 574.475L515.092 574.382L470.871 574.396C451.747 574.333 437.344 574.544 418.784 568.49C399.5 562.2 386.418 555.184 370.952 542.212C304.849 486.768 333.193 364.38 425.344 359.22Z"/><path fill="#A2CCD0" d="M424.7 376.206C429.503 375.606 445.879 375.978 451.509 375.992L506.499 376.098L567.543 376.092C576.283 376.066 592.995 375.519 601.115 376.375C609.875 377.341 618.373 379.951 626.164 384.069C645.123 393.856 658.071 409.015 664.651 429.348C669.557 444.507 669.595 472.69 666.49 488.07C664.879 496.172 662.109 504 658.267 511.313C643.376 539.349 621.715 552.598 592.366 561.691C581.508 564.275 571.776 566.152 560.5 566.297C533.906 566.64 507.303 566.334 480.706 566.432C467.069 566.483 453.765 566.686 440.367 563.609C422.324 559.475 405.487 551.212 391.178 539.47C369.689 521.766 355.537 497.364 352.826 469.485C348.355 423.497 376.933 380.42 424.7 376.206Z"/><path fill="#082242" d="M590.496 404.135C635.579 401.129 641.06 485.942 598.776 496.472C596.059 496.601 592.73 496.847 590.126 496.219C551.973 487.017 552.383 411.145 590.496 404.135Z"/><path fill="#FBFBFC" d="M601.022 421.464C612.576 419.805 614.139 438.905 612.272 446.739C611.058 451.833 609.678 454.288 605.26 456.987C590.963 457.127 589.824 429.877 601.022 421.464Z"/><path fill="#FBFBFC" d="M596.612 461.838C598.597 460.964 600.917 461.853 601.809 463.83C602.701 465.808 601.832 468.135 599.863 469.045C597.868 469.966 595.505 469.084 594.602 467.081C593.699 465.078 594.602 462.724 596.612 461.838Z"/><path fill="#082242" d="M426.609 405.562C469.246 401.723 477.758 483.179 435.85 495.516C392.8 502.385 383.031 416.373 426.609 405.562Z"/><path fill="#FBFBFC" d="M437.921 420.026C451.143 422.692 451.632 453.145 438.353 456.983L437.755 456.78C424.606 452.181 424.941 425.504 437.921 420.026Z"/><path fill="#FBFBFC" d="M433.865 460.916C440.407 461.916 440.589 467.006 436.31 470.999C429.983 470.427 430.31 464.666 433.865 460.916Z"/><path fill="#082242" d="M472.143 507.96L552.596 508.086C552.375 520.76 548.085 531.029 539.196 539.989C523.316 554.098 500.806 555.636 485.274 540.187C475.755 529.767 473.156 521.87 472.143 507.96Z"/><path fill="#BA475C" d="M485.274 540.187C493.135 523.776 531.784 524.366 539.196 539.989C523.316 554.098 500.806 555.636 485.274 540.187Z"/><path fill="#7EBDC2" d="M417.593 508.111C422.728 507.939 433.56 506.952 437.247 509.77C443.489 514.542 440.761 521.821 433.341 523.33C429.035 523.469 417.991 524.253 414.555 522.537C407.013 518.771 410.293 510.281 417.593 508.111Z"/><path fill="#7EBDC2" d="M594.966 508.046C602.7 507.32 619.311 505.39 618.957 516.55C618.84 520.214 616.428 521.833 613.379 522.824C609.079 523.633 599.987 524.187 595.789 523.091C586.444 520.652 587.381 512.393 594.966 508.046Z"/><path fill="#FBFBFC" d="M523.346 613.62L564.809 613.505C576.874 613.498 589.576 613.89 601.422 611.831C646.372 656.091 658.467 711.332 658.859 772.783C659.074 789.492 652.519 805.576 640.686 817.375C612.966 845.163 563.235 845.938 526.737 845.977L482.998 845.924C448.185 845.771 410.055 843.338 383.186 817.354C367.247 801.939 363.677 779.53 364.418 758.187C365.85 716.917 378.117 672.274 400.901 637.723C408.51 627.321 414.471 620.153 424.906 612.345C431.352 612.994 437.791 613.443 444.273 613.51C470.609 613.783 497.017 613.272 523.346 613.62Z"/><path fill="#E3EBF0" d="M424.906 612.345C431.352 612.994 437.791 613.443 444.273 613.51C470.609 613.783 497.017 613.272 523.346 613.62C521.581 615.111 517.326 613.698 514.599 614.75C516.188 615.031 517.727 615.546 519.165 616.276L520.004 615.93C523.995 617.692 525.987 621.707 527.49 625.553C531.577 636.013 525.514 643.815 516.29 647.88L518.764 648.156C503.77 650.746 412.603 643.98 400.901 637.723C408.51 627.321 414.471 620.153 424.906 612.345Z"/><path fill="#2D6898" d="M514.599 614.75C516.188 615.031 517.727 615.546 519.165 616.276C526.831 620.169 530.195 629.317 526.876 637.249C523.557 645.18 514.681 649.207 506.528 646.48C498.374 643.754 493.705 635.198 495.825 626.866C497.944 618.534 506.133 613.249 514.599 614.75Z"/><path fill="#A2CCD0" d="M508.595 619.859C514.536 618.091 520.791 621.441 522.612 627.366C524.433 633.291 521.138 639.576 515.229 641.449C509.246 643.345 502.865 640 501.021 634.001C499.178 628.001 502.579 621.649 508.595 619.859Z"/><path fill="#2D6898" d="M505.068 678.717C533.127 675.362 558.593 695.387 561.951 723.445C565.308 751.503 545.287 776.972 517.229 780.333C489.167 783.694 463.694 763.668 460.335 735.606C456.977 707.544 477.005 682.073 505.068 678.717Z"/><path fill="#FBFBFC" d="M505.147 688.683C529.596 687.057 525.238 695.166 524.838 716.024C531.791 716 543.904 715.684 550.549 716.623C553.103 721.785 554.573 735.547 550.206 739.542C546.386 743.037 530.485 741.524 524.952 741.493C524.857 748.618 525.928 758.787 523.946 765.391C523.203 767.864 521.144 768.968 518.926 769.949C493.219 774.64 500.033 759.316 499.17 740.993C491.933 740.787 485.064 741.061 477.786 740.394C470.551 735.674 467.93 726.63 473.75 719.36C477.622 714.523 493.089 715.97 499.472 716.046C499.605 709.031 498.509 699.391 500.382 692.865C501.045 690.554 503.09 689.551 505.147 688.683Z"/><path fill="#E3EBF0" d="M534.96 223.503C568.055 226.204 599.956 237.108 627.781 255.23C670.994 282.841 701.638 326.316 713.117 376.296L706.57 376.629L701.647 367.701C694.901 356.262 686.787 345.687 677.484 336.211C655.91 314.43 628.602 299.539 598.094 294.772C587.387 293.099 573.608 293.524 562.425 293.504L515.744 293.406C515.418 275.287 515.602 256.54 515.591 238.383C517.295 238.017 518.975 237.551 520.624 236.987C527.687 234.529 531.792 229.98 534.96 223.503Z"/><path fill="#E3EBF0" d="M484.3 223.699L488.816 223.309C489.431 224.306 490.056 225.297 490.69 226.282C495.771 234.159 500.034 236.659 508.827 238.577L508.699 293.478L467.433 293.412C448.855 293.386 432.705 292.546 414.543 297.36C373.883 308.137 343.7 329.841 322.046 365.75C319.379 370.386 317.018 375.192 314.979 380.137L310.129 378.674C314.671 352.566 330.686 320.466 347.162 299.678C380.845 256.997 430.252 229.623 484.3 223.699Z"/><path fill="#2D6898" d="M497.165 204.305C503.63 192.735 517.172 192.673 525.532 202.297C532.512 207.028 531.738 216.938 527.525 223.253C524.819 227.261 520.614 230.012 515.857 230.886C506.246 232.733 496.032 227.13 494.623 216.887C494.063 212.822 494.527 207.639 497.165 204.305Z"/><path fill="#67B1D2" d="M497.165 204.305C503.63 192.735 517.172 192.673 525.532 202.297C525.531 205.494 525.489 208.004 525.254 211.192C522.245 206.363 519.759 202.672 513.821 201.213C508.891 200.001 502.877 201.156 498.649 203.803C498.008 204.204 497.927 204.153 497.165 204.305Z"/><path fill="#7EBDC2" d="M699.026 83.5352C722.786 70.5283 721.01 70.0242 748.345 70.105L784.708 70.0683L852.079 70.0346C867.622 70.0044 886.85 68.5517 901.711 72.5056C913.731 75.7035 927.911 86.9439 933.969 97.9403C937.277 104.084 939.435 110.781 940.336 117.7C941.627 127.8 940.961 152.45 940.971 163.381L941.003 190.519C941.037 199.626 941.954 212.502 939.353 220.959C932.791 242.288 914.666 258.566 892.417 261.174C888.63 260.884 884.423 261.065 880.602 261.129C863.113 261.423 845.532 260.696 828.06 260.745C824.713 264.068 776.892 311.435 776.624 311.541L776.545 311.098C773.695 308.659 760.082 289.799 755.935 284.845C751.729 279.908 747.337 275.132 742.768 270.528C740.151 267.9 735.277 263.425 733.305 260.569C704.432 258.268 687.349 241.73 679.787 214.536C679.452 211.486 679.25 208.423 679.183 205.356C678.835 192.372 678.917 178.511 679.228 165.474C680.069 130.218 672.944 111.123 699.026 83.5352Z"/><path fill="#D1E0EA" d="M733.305 260.569C747.475 260.758 761.992 260.524 776.053 260.797L776.545 311.098C773.695 308.659 760.082 289.799 755.935 284.845C751.729 279.908 747.337 275.132 742.768 270.528C740.151 267.9 735.277 263.425 733.305 260.569Z"/><path fill="#FBFBFC" d="M736.158 138.248C786.523 138.801 837.137 137.551 887.523 138.211C890.033 138.244 894.448 138.678 894.632 141.691C892.758 145.688 889.808 145.465 886.125 145.405L781.34 145.37C765.209 145.388 748.991 145.6 732.857 145.572C731.625 145.57 728.939 145.334 727.994 144.503C726.691 143.358 726.874 143.223 726.554 141.753C728.068 137.14 731.902 138.204 736.158 138.248Z"/><path fill="#FBFBFC" d="M728.821 161.032C735.723 160.755 745.027 161.109 752.184 161.167L798.251 161.412L859.708 161.382C869.804 161.378 879.901 161.377 889.996 161.386C894.391 161.389 896.14 165.786 892.022 168.08C860.071 168.512 827.566 167.981 795.533 168.174L752.48 168.421C747.779 168.444 730.579 169.207 727.11 167.467C724.895 164.557 726.482 163.117 728.821 161.032Z"/><path fill="#FBFBFC" d="M727.939 184.053C736.56 183.457 847.772 183.3 850.591 184.547C851.941 185.144 852.013 185.518 852.489 186.796C852.272 188.811 852.216 188.708 850.868 190.31C843.234 190.846 830.55 190.482 822.436 190.49L769.08 190.563C756.776 190.585 741.536 190.938 729.09 190.452C727.836 190.404 727.151 189.057 726.654 188.159C726.583 186.015 726.722 185.932 727.939 184.053Z"/><path fill="#030104" fill-opacity="0.015686275" d="M788.426 27.3055C789.753 29.6062 790.135 31.7366 788.257 33.8148L788.19 33.2297C788.269 32.8077 788.29 31.973 788.317 31.5132L787.195 30.8386C786.889 27.2397 787.97 31.6936 788.426 27.3055Z"/><path fill="#030104" fill-opacity="0.011764706" d="M935.206 29.1671L935.826 29.1811L935.991 30.6435L935.085 30.8261L935.206 29.1671Z"/></svg>